<?xml version="1.0" encoding="UTF-8" standalone="no"?>
<svg
   xmlns:dc="http://purl.org/dc/elements/1.1/"
   xmlns:cc="http://creativecommons.org/ns#"
   xmlns:rdf="http://www.w3.org/1999/02/22-rdf-syntax-ns#"
   xmlns:svg="http://www.w3.org/2000/svg"
   xmlns="http://www.w3.org/2000/svg"
   xmlns:sodipodi="http://sodipodi.sourceforge.net/DTD/sodipodi-0.dtd"
   xmlns:inkscape="http://www.inkscape.org/namespaces/inkscape"
   fill-opacity="1"
   color-rendering="auto"
   color-interpolation="auto"
   stroke="black"
   text-rendering="auto"
   stroke-linecap="square"
   stroke-miterlimit="10"
   stroke-opacity="1"
   shape-rendering="auto"
   fill="black"
   stroke-dasharray="none"
   font-weight="normal"
   stroke-width="1"
   font-family="'Dialog'"
   font-style="normal"
   stroke-linejoin="miter"
   font-size="12"
   stroke-dashoffset="0"
   image-rendering="auto"
   id="svg3052"
   version="1.1"
   inkscape:version="0.48.5 r10040"
   width="100%"
   height="100%"
   sodipodi:docname="deconnexion.svg">
  <metadata
     id="metadata3063">
    <rdf:RDF>
      <cc:Work
         rdf:about="">
        <dc:format>image/svg+xml</dc:format>
        <dc:type
           rdf:resource="http://purl.org/dc/dcmitype/StillImage" />
        <dc:title />
      </cc:Work>
    </rdf:RDF>
  </metadata>
  <sodipodi:namedview
     pagecolor="#ffffff"
     bordercolor="#666666"
     borderopacity="1"
     objecttolerance="10"
     gridtolerance="10"
     guidetolerance="10"
     inkscape:pageopacity="0"
     inkscape:pageshadow="2"
     inkscape:window-width="1331"
     inkscape:window-height="750"
     id="namedview3061"
     showgrid="false"
     inkscape:zoom="0.83452888"
     inkscape:cx="90.746478"
     inkscape:cy="779.11726"
     inkscape:window-x="35"
     inkscape:window-y="18"
     inkscape:window-maximized="1"
     inkscape:current-layer="svg3052" />
  <!--Unicode Character 'LEFTWARDS BLACK CIRCLED WHITE ARROW' (U+2B88)-->
  <defs
     id="genericDefs" />
  <path
     style="fill:#ffffff;stroke-width:0.66500998"
     d="M 63.388811,152.09485 C 40.382863,148.04725 19.728159,132.61264 8.8334223,111.32729 3.3246414,100.56463 0.75735925,89.642266 0.75735925,76.968109 c 0,-20.716878 7.44923645,-38.811245 22.01893675,-53.484501 26.146927,-26.3327703 66.313575,-30.2061683 97.017274,-9.355685 5.80993,3.945451 14.10159,11.973862 18.59753,18.007084 3.43619,4.611137 8.58385,14.073177 9.64785,17.733949 l 0.43491,1.49627 -45.91616,0 -45.916131,0 L 56.46097,38.725843 56.28036,26.08646 30.843712,51.530503 5.4070609,76.974545 31.009964,102.57097 l 25.602903,25.59642 0,-12.7982 0,-12.7982 45.930493,0 45.93051,0 -0.43491,1.49627 c -0.94703,3.25832 -6.00846,12.82525 -8.83128,16.69254 -11.18047,15.31735 -26.83906,25.94369 -44.780315,30.38912 -7.427223,1.84028 -23.219572,2.32157 -31.038543,0.94596 l 0,0 z"
     id="path2992"
     inkscape:connector-curvature="0" />
</svg>
