<?xml version="1.0" encoding="UTF-8" standalone="no"?>
<svg
   xmlns:dc="http://purl.org/dc/elements/1.1/"
   xmlns:cc="http://creativecommons.org/ns#"
   xmlns:rdf="http://www.w3.org/1999/02/22-rdf-syntax-ns#"
   xmlns:svg="http://www.w3.org/2000/svg"
   xmlns="http://www.w3.org/2000/svg"
   xmlns:sodipodi="http://sodipodi.sourceforge.net/DTD/sodipodi-0.dtd"
   xmlns:inkscape="http://www.inkscape.org/namespaces/inkscape"
   fill-opacity="1"
   color-rendering="auto"
   color-interpolation="auto"
   stroke="black"
   text-rendering="auto"
   stroke-linecap="square"
   stroke-miterlimit="10"
   stroke-opacity="1"
   shape-rendering="auto"
   fill="black"
   stroke-dasharray="none"
   font-weight="normal"
   stroke-width="1"
   font-family="'Dialog'"
   font-style="normal"
   stroke-linejoin="miter"
   font-size="12"
   stroke-dashoffset="0"
   image-rendering="auto"
   id="svg2"
   version="1.1"
   inkscape:version="0.48.5 r10040"
   width="100%"
   height="100%"
   sodipodi:docname="espace.svg">
  <metadata
     id="metadata13">
    <rdf:RDF>
      <cc:Work
         rdf:about="">
        <dc:format>image/svg+xml</dc:format>
        <dc:type
           rdf:resource="http://purl.org/dc/dcmitype/StillImage" />
        <dc:title></dc:title>
      </cc:Work>
    </rdf:RDF>
  </metadata>
  <sodipodi:namedview
     pagecolor="#ffffff"
     bordercolor="#666666"
     borderopacity="1"
     objecttolerance="10"
     gridtolerance="10"
     guidetolerance="10"
     inkscape:pageopacity="0"
     inkscape:pageshadow="2"
     inkscape:window-width="1331"
     inkscape:window-height="750"
     id="namedview11"
     showgrid="false"
     inkscape:zoom="1.2685914"
     inkscape:cx="223.80233"
     inkscape:cy="820.02361"
     inkscape:window-x="35"
     inkscape:window-y="18"
     inkscape:window-maximized="1"
     inkscape:current-layer="svg2" />
  <!--Unicode Character 'PERSON WITH BALL' (U+26F9)-->
  <defs
     id="genericDefs" />
  <g
     id="g5"
     transform="translate(-15.765518,-72.94483)">
    <g
       id="g7">
      <path
         d="m 157.9219,104.4844 q 0,12.2344 -8.9297,21.3047 -8.9297,9.0703 -21.1641,9.0703 -12.0937,0 -21.164,-9.1406 -9.0703,-9.1407 -9.0703,-21.2344 0,-12.0938 9.0703,-21.3047 9.0703,-9.2109 21.164,-9.2109 12.5157,0 21.3047,9 8.7891,9 8.7891,21.5156 z m 96.75,109.5468 q 0,10.6876 -8.2969,18.9141 -8.2969,8.2266 -19.125,8.2266 -10.9688,0 -18.8438,-8.0157 -7.875,-8.0156 -7.875,-19.125 0,-11.6718 7.6641,-19.4062 7.6641,-7.7344 19.3359,-7.7344 11.1094,0 19.125,8.0156 8.0157,8.0157 8.0157,19.125 z m 16.7343,116.0157 -98.0156,0 q -16.1718,0 -21.375,-12.5157 -1.6875,-3.9374 -6.3281,-19.8281 -4.6406,-15.8906 -13.7813,-47.6719 l -7.5937,0 q -5.0625,15.75 -14.3437,47.3907 -4.3594,16.875 -7.7344,22.2187 -6.3282,10.4063 -19.5469,10.4063 l -66.0937,0 0,-11.1094 50.3437,0 28.125,-96.6094 0,-43.875 -49.6406,58.7813 q -14.9063,-6.0469 -14.9063,-19.8282 0,-5.4843 6.0469,-12.5156 5.0625,-5.9062 15.1875,-18 9,-11.25 18,-22.5 13.3594,-16.0312 19.5469,-19.6875 8.0156,-4.7812 17.0156,-4.7812 l 137.1094,0 q -7.1719,26.8593 -17.5781,26.8593 l -65.6719,0 0,54.4219 q 6.3281,21.2344 29.5312,97.7344 l 81.7031,0 0,11.1094 z"
         id="path9"
         inkscape:connector-curvature="0"
         style="stroke:none" />
    </g>
  </g>
</svg>
