<?xml version="1.0" encoding="UTF-8" standalone="no"?>
<svg
   xmlns:dc="http://purl.org/dc/elements/1.1/"
   xmlns:cc="http://creativecommons.org/ns#"
   xmlns:rdf="http://www.w3.org/1999/02/22-rdf-syntax-ns#"
   xmlns:svg="http://www.w3.org/2000/svg"
   xmlns="http://www.w3.org/2000/svg"
   xmlns:sodipodi="http://sodipodi.sourceforge.net/DTD/sodipodi-0.dtd"
   xmlns:inkscape="http://www.inkscape.org/namespaces/inkscape"
   fill-opacity="1"
   color-rendering="auto"
   color-interpolation="auto"
   stroke="black"
   text-rendering="auto"
   stroke-linecap="square"
   stroke-miterlimit="10"
   stroke-opacity="1"
   shape-rendering="auto"
   fill="black"
   stroke-dasharray="none"
   font-weight="normal"
   stroke-width="1"
   font-family="'Dialog'"
   font-style="normal"
   stroke-linejoin="miter"
   font-size="12"
   stroke-dashoffset="0"
   image-rendering="auto"
   id="svg2"
   version="1.1"
   inkscape:version="0.48.5 r10040"
   width="100%"
   height="100%"
   sodipodi:docname="loupe.svg">
  <metadata
     id="metadata13">
    <rdf:RDF>
      <cc:Work
         rdf:about="">
        <dc:format>image/svg+xml</dc:format>
        <dc:type
           rdf:resource="http://purl.org/dc/dcmitype/StillImage" />
      </cc:Work>
    </rdf:RDF>
  </metadata>
  <sodipodi:namedview
     pagecolor="#ffffff"
     bordercolor="#666666"
     borderopacity="1"
     objecttolerance="10"
     gridtolerance="10"
     guidetolerance="10"
     inkscape:pageopacity="0"
     inkscape:pageshadow="2"
     inkscape:window-width="1331"
     inkscape:window-height="750"
     id="namedview11"
     showgrid="false"
     inkscape:zoom="1.2685914"
     inkscape:cx="337.4294"
     inkscape:cy="839.75536"
     inkscape:window-x="35"
     inkscape:window-y="18"
     inkscape:window-maximized="1"
     inkscape:current-layer="svg2" />
  <!--Unicode Character 'LEFT-POINTING MAGNIFYING GLASS' (U+1F50D)-->
  <defs
     id="genericDefs" />
  <g
     id="g5"
     transform="translate(-11.459311,-72.306207)">
    <g
       id="g7">
      <path
         d="m 279.8438,309.7969 q 0,3.375 -5.3438,9 -4.0781,3.7969 -8.1562,7.7343 -4.0782,4.3594 -12.6563,12.5157 -1.4063,1.125 -3.9375,1.125 -2.8125,0 -11.6719,-9.2813 -13.6406,-13.5 -40.6406,-40.5 -5.3437,-4.9218 -15.0469,-15.1875 -0.9844,-1.125 -0.9844,-3.6562 0,-3.7969 6.0469,-8.7188 l -10.2656,-10.2656 q -30.7969,22.6406 -63.9844,22.6406 -41.0625,0 -71.3672,-30.4453 -30.3047,-30.4453 -30.3047,-71.5078 0,-40.9219 30.5157,-71.2266 30.5156,-30.3046 71.4375,-30.3046 41.2031,0 71.5781,30.375 30.375,30.375 30.375,71.5781 0,32.2031 -22.2187,63 l 9.8437,9.8437 q 1.8281,-1.5468 3.7266,-3.164 1.8984,-1.6172 4.4297,-1.6172 3.6562,0 11.9531,8.2968 12.5156,12.375 37.5469,37.2657 6.3281,6.0469 18,18.4219 1.125,1.4062 1.125,4.0781 z m -79.3126,-60.4688 q -5.2031,-5.2031 -10.125,-9.4219 -2.9531,2.6719 -5.0624,5.4844 3.2343,3.5156 10.2656,9.8438 l 4.9218,-5.9063 z m 4.3594,-78.1875 q 0,-37.2656 -26.8594,-64.1953 -26.8593,-26.9297 -64.125,-26.9297 -37.4062,0 -64.0546,26.8594 -26.6485,26.8594 -26.6485,64.2656 0,37.6875 26.5078,64.125 26.5079,26.4375 64.1953,26.4375 37.4063,0 64.1954,-26.5781 26.789,-26.5781 26.789,-63.9844 z m -12.6562,85.9219 -9.7032,-9.2813 q -0.9843,0.7032 -2.3906,2.3907 l 9.7032,9.8437 q 1.8281,-1.8281 2.3906,-2.9531 z m 61.0312,70.1719 -56.6718,-56.5313 18.4218,-18.4219 q -2.5312,-1.8281 -3.7968,-1.8281 -1.5469,0 -11.1094,9.211 -9.5625,9.2109 -9.5625,12.0234 0,1.6875 2.25,3.9375 52.5937,54 56.3906,54 2.6719,0 4.0781,-2.3906 z m -60.0468,-156.375 q 0,32.9062 -22.9219,55.8281 -22.9219,22.9219 -55.9688,23.2031 l -3.9375,0 q -23.9062,0.2813 -45.2812,-16.7344 -21.375,-17.0156 -27.8438,-40.3593 -2.5312,-9.1407 -2.5312,-15.1875 l 0,-2.5313 q 5.625,25.7344 25.1718,41.836 19.5469,16.1015 45.7032,16.1015 29.3906,0 50.2031,-20.8125 Q 176.625,191.3906 176.625,162 q 0,-24.8906 -15.1875,-44.2969 -15.0469,-18.9843 -39.2344,-25.7343 l 1.4063,0 q 9,0 24.1875,6.75 21.2343,9.4218 33.4687,29.25 11.9532,19.2656 11.9532,42.8906 z M 99.1406,135.8438 q 0,10.6874 -7.7344,18.4218 Q 83.6719,162 72.9844,162 q -8.7188,0 -15.75,-5.4141 -7.0313,-5.414 -9.4219,-13.8515 7.7344,11.8125 20.5313,11.8125 9.4218,0 16.3828,-6.8203 6.9609,-6.8204 6.9609,-16.1016 0,-14.625 -12.2344,-20.5312 8.4375,2.6718 14.0625,9.4218 5.625,6.75 5.625,15.3282 z"
         id="path9"
         inkscape:connector-curvature="0"
         style="stroke:none" />
    </g>
  </g>
</svg>
